<svg width="50" height="59" viewBox="0 0 50 59" fill="none" xmlns="http://www.w3.org/2000/svg">
<path d="M50 29.1923L0 0L8.03201 29.1923L0 58.3846L50 29.1923Z" fill="#4C8E11"/>
<path d="M14.8677 33.4719H9.806L9.18383 35.7386H6.22803L9.43255 24.0719H13.3565L19.2505 35.7386H15.9672L14.8677 33.4719ZM13.5319 30.6219L11.6336 26.7053L10.5526 30.6219H13.5319Z" fill="white"/>
<path d="M21.1471 24.0719H26.2138C27.4138 24.0719 28.4527 24.2719 29.3305 24.6719C30.2083 25.0608 30.8805 25.6275 31.3472 26.3719C31.8249 27.1053 32.0638 27.9719 32.0638 28.9719C32.0638 30.3275 31.7527 31.5164 31.1305 32.5386C30.5194 33.5608 29.6638 34.3497 28.5638 34.9053C27.4638 35.4608 26.2027 35.7386 24.7805 35.7386H18.8138L21.1471 24.0719ZM24.8805 33.1053C25.6805 33.1053 26.3694 32.9386 26.9472 32.6053C27.536 32.2608 27.9805 31.7942 28.2805 31.2053C28.5805 30.6053 28.7305 29.9275 28.7305 29.1719C28.7305 28.383 28.486 27.7775 27.9972 27.3553C27.5083 26.9219 26.7916 26.7053 25.8472 26.7053H23.9138L22.6471 33.1053H24.8805Z" fill="white"/>
<path d="M37.5611 35.9719C36.3833 35.9719 35.35 35.7608 34.4611 35.3386C33.5722 34.9053 32.8889 34.2997 32.4111 33.5219C31.9334 32.7442 31.6945 31.8497 31.6945 30.8386C31.6945 29.5053 32 28.3053 32.6111 27.2386C33.2334 26.1719 34.1 25.3386 35.2111 24.7386C36.3222 24.1386 37.5889 23.8386 39.0111 23.8386C40.0889 23.8386 41.0235 24.0513 41.8568 24.4401C42.7236 24.946 43.9883 25.681 43.9883 25.681L41.8778 27.3553C41.1124 26.7053 39.9389 26.5719 38.7945 26.5719C38.05 26.5719 37.3945 26.7497 36.8278 27.1053C36.2611 27.4497 35.8167 27.933 35.4945 28.5553C35.1834 29.1664 35.0278 29.8553 35.0278 30.6219C35.0278 31.4108 35.2834 32.0442 35.7945 32.5219C36.3056 32.9997 37 33.2386 37.8778 33.2386C38.9889 33.2386 39.9389 32.7886 40.7278 31.8886L42.5462 33.5448C41.1107 34.386 40.9848 34.4615 40.02 35.0217C39.8426 35.1118 38.65 35.9719 37.5611 35.9719Z" fill="white"/>
</svg>
