<svg width="150" height="176" viewBox="0 0 150 176" fill="none" xmlns="http://www.w3.org/2000/svg">
<path d="M150 87.5769L0 0L24.096 87.5769L0 175.154L150 87.5769Z" fill="#4C8E11"/>
<path d="M44.6032 100.416H29.418L27.5515 107.216H18.6841L28.2976 72.2158H40.0694L57.7515 107.216H47.9015L44.6032 100.416ZM40.5956 91.8658L34.9007 80.1158L31.6579 91.8658H40.5956Z" fill="white"/>
<path d="M63.4414 72.2158H78.6415C82.2415 72.2158 85.3581 72.8158 87.9915 74.0158C90.6248 75.1825 92.6415 76.8825 94.0415 79.1158C95.4748 81.3158 96.1915 83.9158 96.1915 86.9158C96.1915 90.9825 95.2581 94.5491 93.3915 97.6158C91.5581 100.682 88.9915 103.049 85.6915 104.716C82.3915 106.382 78.6081 107.216 74.3415 107.216H56.4414L63.4414 72.2158ZM74.6415 99.3158C77.0415 99.3158 79.1081 98.8158 80.8415 97.8158C82.6081 96.7825 83.9415 95.3825 84.8415 93.6158C85.7415 91.8158 86.1915 89.7825 86.1915 87.5158C86.1915 85.1491 85.4581 83.3325 83.9915 82.0658C82.5248 80.7658 80.3748 80.1158 77.5415 80.1158H71.7414L67.9414 99.3158H74.6415Z" fill="white"/>
<path d="M112.683 107.916C109.15 107.916 106.05 107.282 103.383 106.016C100.717 104.716 98.6667 102.899 97.2334 100.566C95.8 98.2325 95.0834 95.5491 95.0834 92.5158C95.0834 88.5158 96 84.9158 97.8334 81.7158C99.7001 78.5158 102.3 76.0158 105.633 74.2158C108.967 72.4158 112.767 71.5158 117.033 71.5158C120.267 71.5158 123.071 72.1538 125.571 73.3205C128.171 74.8379 131.965 77.043 131.965 77.043L125.633 82.0658C123.337 80.1158 119.817 79.7158 116.383 79.7158C114.15 79.7158 112.183 80.2491 110.483 81.3158C108.783 82.3491 107.45 83.7991 106.483 85.6658C105.55 87.4991 105.083 89.5658 105.083 91.8658C105.083 94.2325 105.85 96.1325 107.383 97.5658C108.917 98.9991 111 99.7158 113.633 99.7158C116.967 99.7158 119.817 98.3658 122.183 95.6658L127.639 100.635C123.332 103.158 122.954 103.385 120.06 105.065C119.528 105.336 115.95 107.916 112.683 107.916Z" fill="white"/>
</svg>
